<?xml version="1.0" encoding="UTF-8" standalone="no"?>
<!-- Created with Inkscape (http://www.inkscape.org/) -->

<svg
   width="202.03323mm"
   height="192.53015mm"
   viewBox="0 0 202.03323 192.53015"
   version="1.1"
   id="svg1"
   sodipodi:docname="path10.svg"
   inkscape:version="1.3.2 (091e20ef0f, 2023-11-25, custom)"
   xmlns:inkscape="http://www.inkscape.org/namespaces/inkscape"
   xmlns:sodipodi="http://sodipodi.sourceforge.net/DTD/sodipodi-0.dtd"
   xmlns="http://www.w3.org/2000/svg"
   xmlns:svg="http://www.w3.org/2000/svg">
  <sodipodi:namedview
     id="namedview1"
     pagecolor="#181818"
     bordercolor="#666666"
     borderopacity="1.0"
     inkscape:showpageshadow="2"
     inkscape:pageopacity="0.0"
     inkscape:pagecheckerboard="0"
     inkscape:deskcolor="#d1d1d1"
     inkscape:document-units="mm"
     inkscape:zoom="0.8114004"
     inkscape:cx="263.12533"
     inkscape:cy="380.20686"
     inkscape:window-width="1920"
     inkscape:window-height="1048"
     inkscape:window-x="1920"
     inkscape:window-y="0"
     inkscape:window-maximized="1"
     inkscape:current-layer="svg1" />
  <defs
     id="defs1" />
  <g
     id="layer1"
     transform="matrix(0.95226192,0,0,0.95226192,-40.385686,-3.6894559)"
     inkscape:export-filename="path_querry.svg"
     inkscape:export-xdpi="96"
     inkscape:export-ydpi="96">
    <rect
       style="font-variation-settings:'wght' 800;fill:none;fill-opacity:1;stroke:none;stroke-width:2.11667;stroke-linecap:butt;stroke-dasharray:none;stroke-opacity:1"
       id="rect11"
       width="297.36029"
       height="211.38112"
       x="0"
       y="0" />
    <path
       id="path10"
       style="font-variation-settings:'wght' 800;opacity:0.310976;fill:none;stroke:#ffffff;stroke-width:2.11667;stroke-opacity:1"
       d="m 202.09986,287.75245 c -46.28366,-9.07774 -82.61097,-50.49458 -83.53738,-98.80596 0.46667,-24.33654 9.91659,-46.92354 25.0972,-64.50845 -15.18061,17.58491 -24.63053,40.17191 -25.0972,64.50845 0.92641,48.31138 37.25372,89.72822 83.53738,98.80596 z m 116.38561,-89.72502 c -4.1211,36.64425 -28.72577,68.19746 -61.71009,82.55567 32.98432,-14.35821 57.58899,-45.91142 61.71009,-82.55567 z m -11.52025,28.95301 c -15.44208,33.55149 -49.54203,57.88513 -87.76887,58.46994 -16.35971,-0.25028 -31.96357,-4.85023 -45.67259,-12.66087 13.70902,7.81064 29.31288,12.41059 45.67259,12.66087 38.22684,-0.58481 72.32679,-24.91845 87.76887,-58.46994 z m -8.9954,6.71494 c -16.26633,27.31389 -46.12634,46.54062 -78.77347,46.87364 l -2e-5,-1e-5 c -48.65878,-0.49636 -91.12616,-42.96374 -91.62251,-91.62252 0.49635,-48.65878 42.96373,-91.12616 91.6225,-91.622532 h 3e-5 c 48.65887,0.496358 91.12632,42.963892 91.62254,91.622782 -0.49622,-48.65889 -42.96367,-91.126424 -91.62254,-91.622782 l -2e-5,1.6e-5 c -48.65878,0.496356 -91.12616,42.963736 -91.62251,91.622516 0.49635,48.65878 42.96373,91.12616 91.6225,91.62253 h 3e-5 c 32.64713,-0.33302 62.50714,-19.55975 78.77347,-46.87364 z m 6.83478,-43.89435 c -0.64059,44.67147 -40.8781,84.6266 -85.60825,84.76112 l -1e-5,-10e-6 c -45.01518,-0.13538 -85.48027,-40.60047 -85.61565,-85.61565 0.0463,-15.39809 4.81151,-30.26378 12.86357,-43.16502 -8.05206,12.90124 -12.81727,27.76693 -12.86357,43.16502 l 1e-5,10e-6 c 0.13538,45.01518 40.60047,85.48027 85.61565,85.61565 44.73015,-0.13452 84.96766,-40.08965 85.60825,-84.76112 z m -8.11539,16.3864 c -8.57279,34.21573 -41.96002,62.56112 -77.49286,62.36734 -27.06548,0.1476 -52.8861,-16.26299 -67.44372,-39.21365 14.55762,22.95066 40.37824,39.36125 67.44372,39.21365 35.53284,0.19378 68.92007,-28.15161 77.49286,-62.36734 z m -3.71164,-11.49118 c -2.94868,35.81483 -37.74763,68.76232 -73.78122,68.22682 v 0 c -37.95523,0.56405 -74.54063,-36.02134 -73.97658,-73.97657 v -10e-6 c -0.21793,-14.66411 5.1094,-29.12375 13.91854,-41.3155 -8.80914,12.19175 -14.13647,26.65139 -13.91854,41.3155 -0.56406,37.95523 36.02134,74.54063 73.97657,73.97658 h 1e-5 c 36.03359,0.5355 70.83254,-32.41199 73.78122,-68.22682 z m -3.93462,-5.74976 c 0.81224,35.4501 -34.3965,70.65884 -69.8466,69.8466 l -1e-5,-1e-5 c -35.45009,0.81225 -70.65883,-34.3965 -69.84659,-69.84659 -0.81224,-35.45009 34.39649,-70.65883 69.84658,-69.8466 h 2e-5 c 10.5497,-0.24172 21.07803,2.70664 30.642,7.90209 -9.56397,-5.19545 -20.0923,-8.14381 -30.642,-7.90209 l -1e-5,1e-5 c -35.4501,-0.81224 -70.65883,34.3965 -69.84659,69.84659 -0.81224,35.45009 34.39649,70.65883 69.84658,69.8466 h 2e-5 c 35.4501,0.81224 70.65884,-34.3965 69.8466,-69.8466 z m -3.75481,0 c 1.03788,33.17253 -32.91926,67.12967 -66.09179,66.09179 l -2e-5,-10e-6 c -33.17252,1.03788 -67.12965,-32.91925 -66.09177,-66.09178 -1.03788,-33.17253 32.91925,-67.12966 66.09177,-66.09179 h 2e-5 c 25.61555,-0.80145 51.69895,19.26394 61.77574,43.72169 -10.07679,-24.45775 -36.16019,-44.52314 -61.77574,-43.72169 -33.17253,-1.03788 -67.12967,32.91926 -66.09179,66.09179 -1.03788,33.17253 32.91925,67.12966 66.09177,66.09179 h 2e-5 c 33.17253,1.03788 67.12967,-32.91926 66.09179,-66.09179 z"
       transform="translate(-70.020561,-87.525919)" />
  </g>
</svg>
