<?xml version="1.0" encoding="UTF-8" standalone="no"?>
<!-- Created with Inkscape (http://www.inkscape.org/) -->

<svg
   width="32"
   height="30.494808"
   viewBox="0 0 8.4666664 8.0684181"
   version="1.1"
   id="svg1"
   sodipodi:docname="favicon.svg"
   inkscape:version="1.3.2 (091e20ef0f, 2023-11-25, custom)"
   xmlns:inkscape="http://www.inkscape.org/namespaces/inkscape"
   xmlns:sodipodi="http://sodipodi.sourceforge.net/DTD/sodipodi-0.dtd"
   xmlns="http://www.w3.org/2000/svg"
   xmlns:svg="http://www.w3.org/2000/svg">
  <sodipodi:namedview
     id="namedview1"
     pagecolor="#181818"
     bordercolor="#666666"
     borderopacity="1.0"
     inkscape:showpageshadow="2"
     inkscape:pageopacity="0.0"
     inkscape:pagecheckerboard="0"
     inkscape:deskcolor="#d1d1d1"
     inkscape:document-units="mm"
     inkscape:zoom="25.938842"
     inkscape:cx="16.018448"
     inkscape:cy="15.247404"
     inkscape:window-width="1920"
     inkscape:window-height="1004"
     inkscape:window-x="0"
     inkscape:window-y="0"
     inkscape:window-maximized="1"
     inkscape:current-layer="layer1" />
  <defs
     id="defs1" />
  <g
     id="layer1"
     transform="matrix(0.95226192,0,0,0.95226192,-40.385686,-3.6894559)"
     inkscape:export-filename="path_querry.svg"
     inkscape:export-xdpi="96"
     inkscape:export-ydpi="96">
    <rect
       style="font-variation-settings:'wght' 800;fill:none;fill-opacity:1;stroke:none;stroke-width:2.11667;stroke-linecap:butt;stroke-dasharray:none;stroke-opacity:1"
       id="rect11"
       width="297.36029"
       height="211.38112"
       x="0"
       y="0" />
    <path
       id="path10"
       style="font-variation-settings:'wght' 800;opacity:1;fill:none;stroke:#ffffff;stroke-width:0.0902398;stroke-opacity:1"
       d="m 46.155765,12.170539 c -1.973206,-0.387006 -3.521946,-2.152726 -3.561442,-4.2123752 0.01986,-1.0375402 0.422772,-2.0004867 1.069964,-2.7501825 -0.647192,0.7496958 -1.050066,1.7126423 -1.069964,2.7501825 0.03952,2.0596492 1.588236,3.8253692 3.561442,4.2123752 z m 4.961857,-3.825234 c -0.175702,1.562254 -1.224664,2.90746 -2.630881,3.519584 1.406217,-0.612124 2.455179,-1.95733 2.630881,-3.519584 z m -0.491146,1.2343514 c -0.658343,1.4303986 -2.112116,2.4678126 -3.741843,2.4927386 -0.697461,-0.01066 -1.362691,-0.206779 -1.947147,-0.539768 0.584456,0.332989 1.249686,0.529102 1.947147,0.539768 1.629727,-0.0249 3.0835,-1.06234 3.741843,-2.4927386 z m -0.383499,0.2862751 c -0.693479,1.1644765 -1.966503,1.9841645 -3.358344,1.9983565 v 0 C 44.810173,11.84317 42.999667,10.032625 42.9785,7.9581638 42.999619,5.8836937 44.810173,4.0731884 46.884633,4.0520309 v 0 c 2.07447,0.021119 3.884985,1.8316725 3.906133,3.9061425 -0.02112,-2.07447 -1.831663,-3.884985 -3.906133,-3.9061425 v 0 c -2.07446,0.021119 -3.884966,1.8316628 -3.906133,3.9061329 0.02112,2.0744612 1.831673,3.8849672 3.906133,3.9061242 v 0 c 1.391841,-0.01424 2.664865,-0.83388 3.358344,-1.9983565 z m 0.29139,-1.8713428 C 50.507047,9.8990631 48.791616,11.602465 46.884633,11.6082 v 0 c -1.919121,-0.0058 -3.64427,-1.7309144 -3.650034,-3.6500362 0.0019,-0.656473 0.205123,-1.2902385 0.548409,-1.8402556 -0.343286,0.5500171 -0.546443,1.1837826 -0.548409,1.8402556 v 0 c 0.0058,1.9191218 1.730913,3.6442712 3.650034,3.6500362 1.906983,-0.0058 3.622415,-1.7091369 3.649734,-3.6136113 z m -0.345989,0.6986039 c -0.36548,1.4587154 -1.788873,2.6671624 -3.303745,2.6588984 -1.153877,0.0058 -2.254687,-0.693334 -2.875316,-1.6717913 0.620629,0.9784573 1.721439,1.6780883 2.875316,1.6717913 1.514872,0.0077 2.938265,-1.200183 3.303745,-2.6588984 z M 50.030143,8.2032864 c -0.125715,1.5268942 -1.609287,2.9315436 -3.14551,2.9087096 v 0 c -1.618141,0.02402 -3.177876,-1.5356915 -3.153831,-3.1538322 v 0 c -0.0097,-0.6251727 0.217833,-1.2416363 0.593388,-1.7613994 -0.375555,0.5197631 -0.602679,1.1362267 -0.593388,1.7613994 -0.02403,1.6181407 1.53569,3.1778772 3.153831,3.1538322 v 0 c 1.536223,0.02286 3.019795,-1.3818154 3.14551,-2.9087096 z M 49.862394,7.9581638 c 0.03458,1.5113361 -1.466415,3.0123852 -2.977761,2.9777622 v 0 C 45.373297,10.970506 43.872249,9.4694999 43.906872,7.9581638 43.872192,6.446818 45.373297,4.94577 46.884633,4.9803931 v 0 c 0.449771,-0.010269 0.898622,0.1153974 1.306358,0.3368922 -0.407736,-0.2214948 -0.856587,-0.34719 -1.306358,-0.3368922 v 9.7e-6 c -1.511336,-0.034681 -3.012384,1.4664152 -2.977761,2.977761 -0.03468,1.5113361 1.466425,3.0123852 2.977761,2.9777622 v 0 c 1.511346,0.03458 3.012394,-1.4664261 2.977761,-2.9777622 z m -0.160076,0 c 0.04427,1.4142383 -1.403437,2.8619292 -2.817685,2.8176762 v 0 C 45.470395,10.82011 44.022705,9.3724021 44.066958,7.9581638 44.022688,6.5439157 45.470395,5.0962264 46.884633,5.1404789 v 0 c 1.092071,-0.034197 2.204079,0.8212766 2.633681,1.8639802 -0.429602,-1.0427036 -1.54161,-1.898148 -2.633681,-1.8639802 -1.414238,-0.044272 -2.861928,1.4034368 -2.817675,2.8176849 -0.04427,1.4142383 1.403437,2.8619292 2.817675,2.8176762 v 0 c 1.414248,0.04427 2.861937,-1.4034379 2.817685,-2.8176762 z" />
  </g>
</svg>
